<svg width="307" height="593" viewBox="0 0 307 593" fill="none" xmlns="http://www.w3.org/2000/svg">
<g opacity="0.2" clip-path="url(#clip0_839_1281)">
<path d="M67.6667 60.6667H22.3333C20.7685 60.6667 19.5 61.9352 19.5 63.5V69.1667C19.5 70.7315 20.7685 72 22.3333 72H67.6667C69.2315 72 70.5 70.7315 70.5 69.1667V63.5C70.5 61.9352 69.2315 60.6667 67.6667 60.6667Z" stroke="#634092" stroke-opacity="0.2" stroke-width="2" stroke-linecap="round" stroke-linejoin="round"/>
<path d="M45 60.6667V97.5" stroke="#634092" stroke-opacity="0.2" stroke-width="2" stroke-linecap="round" stroke-linejoin="round"/>
<path d="M64.8334 72V91.8333C64.8334 93.3362 64.2364 94.7776 63.1737 95.8403C62.111 96.903 60.6696 97.5 59.1667 97.5H30.8334C29.3305 97.5 27.8892 96.903 26.8265 95.8403C25.7638 94.7776 25.1667 93.3362 25.1667 91.8333V72" stroke="#634092" stroke-opacity="0.2" stroke-width="2" stroke-linecap="round" stroke-linejoin="round"/>
<path d="M32.2501 60.6667C30.3715 60.6667 28.5698 59.9204 27.2414 58.592C25.913 57.2636 25.1667 55.462 25.1667 53.5833C25.1667 51.7047 25.913 49.903 27.2414 48.5747C28.5698 47.2463 30.3715 46.5 32.2501 46.5C34.9834 46.4524 37.6618 47.7786 39.9362 50.3056C42.2105 52.8327 43.9752 56.4433 45.0001 60.6667C46.025 56.4433 47.7896 52.8327 50.064 50.3056C52.3383 47.7786 55.0168 46.4524 57.7501 46.5C59.6287 46.5 61.4304 47.2463 62.7588 48.5747C64.0871 49.903 64.8334 51.7047 64.8334 53.5833C64.8334 55.462 64.0871 57.2636 62.7588 58.592C61.4304 59.9204 59.6287 60.6667 57.7501 60.6667" stroke="#634092" stroke-opacity="0.2" stroke-width="2" stroke-linecap="round" stroke-linejoin="round"/>
</g>
<g opacity="0.2" clip-path="url(#clip1_839_1281)">
<path d="M201.252 37.3923C200.833 36.4755 201.237 35.3928 202.154 34.974L203.609 34.3092C206.023 33.2068 208.126 34.1445 209.644 35.3435C210.684 36.1652 211.678 37.2931 212.523 38.277L246.702 22.6648C248.905 21.6586 251.459 23.0377 251.826 25.4316L254.86 45.2112C255.355 48.4379 253.647 51.6012 250.677 52.9577L233.814 60.6605C230.82 62.0281 227.281 61.2229 225.174 58.6944L219.47 51.8522C219.441 51.8227 219.412 51.7919 219.385 51.76L210.663 41.7083C210.37 41.3766 210.091 41.0525 209.822 40.7395C208.967 39.7438 208.209 38.8614 207.381 38.2077C206.381 37.4174 205.758 37.3403 205.126 37.6293L203.67 38.2941C202.754 38.7128 201.671 38.3091 201.252 37.3923ZM222.174 49.3947L227.977 56.3576C229.031 57.6218 230.801 58.0242 232.298 57.3404L249.161 49.6377C250.646 48.9595 251.5 47.378 251.252 45.7643L248.219 25.9848L215.021 41.1488L222.174 49.3947Z" fill="#634092" fill-opacity="0.2"/>
<path d="M242.706 66.6241C243.962 69.3745 242.751 72.6227 240 73.879C237.25 75.1353 234.002 73.924 232.745 71.1737C231.489 68.4233 232.7 65.1752 235.451 63.9188C238.201 62.6625 241.449 63.8738 242.706 66.6241ZM239.386 68.1407C238.967 67.224 237.884 66.8201 236.967 67.2389C236.05 67.6577 235.647 68.7405 236.066 69.6572C236.484 70.5742 237.567 70.9777 238.484 70.5589C239.401 70.1402 239.804 69.0576 239.386 68.1407Z" fill="#634092" fill-opacity="0.2"/>
<path d="M259.306 59.0416C260.562 61.7919 259.351 65.0401 256.6 66.2964C253.85 67.5527 250.602 66.3414 249.346 63.5911C248.089 60.8408 249.301 57.5926 252.051 56.3363C254.801 55.08 258.049 56.2913 259.306 59.0416ZM255.986 60.5581C255.567 59.6414 254.484 59.2376 253.567 59.6563C252.651 60.075 252.247 61.1579 252.666 62.0746C253.084 62.9916 254.167 63.3951 255.084 62.9764C256.001 62.5577 256.405 61.4751 255.986 60.5581Z" fill="#634092" fill-opacity="0.2"/>
</g>
<g clip-path="url(#clip2_839_1281)">
<path d="M40.7559 508.944L43.8536 513.345" stroke="#634092" stroke-opacity="0.1" stroke-width="2" stroke-linecap="round" stroke-linejoin="round"/>
<path d="M50.0491 522.148L53.1468 526.55" stroke="#634092" stroke-opacity="0.1" stroke-width="2" stroke-linecap="round" stroke-linejoin="round"/>
<path d="M59.342 535.353L62.4398 539.754" stroke="#634092" stroke-opacity="0.1" stroke-width="2" stroke-linecap="round" stroke-linejoin="round"/>
<path d="M18.7482 524.432L49.559 502.748C50.7263 501.927 52.1723 501.602 53.5786 501.847C54.985 502.091 56.2367 502.885 57.0582 504.052L61.7048 510.654C60.5375 511.476 59.7443 512.727 59.4998 514.134C59.2553 515.54 59.5794 516.986 60.401 518.154C61.2226 519.321 62.4742 520.114 63.8806 520.359C65.287 520.603 66.7329 520.279 67.9003 519.457L72.5468 526.06C73.3684 527.227 73.6926 528.673 73.4481 530.079C73.2036 531.486 72.4104 532.737 71.243 533.559L40.4322 555.243C39.2649 556.064 37.819 556.389 36.4126 556.144C35.0062 555.9 33.7546 555.106 32.933 553.939L28.2864 547.337C29.4538 546.515 30.247 545.264 30.4915 543.857C30.736 542.451 30.4118 541.005 29.5902 539.838C28.7687 538.67 27.517 537.877 26.1106 537.632C24.7043 537.388 23.2583 537.712 22.091 538.534L17.4444 531.931C16.6228 530.764 16.2986 529.318 16.5432 527.912C16.7877 526.505 17.5809 525.254 18.7482 524.432" stroke="#634092" stroke-opacity="0.1" stroke-width="2" stroke-linecap="round" stroke-linejoin="round"/>
</g>
<g opacity="0.2" clip-path="url(#clip3_839_1281)">
<path d="M244.033 514.749C244.38 513.803 245.429 513.318 246.375 513.665L247.877 514.217C250.368 515.131 251.203 517.277 251.438 519.197C251.599 520.513 251.512 522.014 251.42 523.308L286.693 536.26C288.966 537.094 289.811 539.871 288.388 541.831L276.628 558.022C274.71 560.663 271.27 561.709 268.206 560.584L250.802 554.194C247.713 553.059 245.764 549.997 246.045 546.718L246.806 537.843C246.806 537.801 246.807 537.759 246.81 537.717L247.684 524.437C247.709 523.995 247.739 523.569 247.768 523.158C247.861 521.848 247.943 520.688 247.815 519.641C247.66 518.375 247.272 517.883 246.619 517.643L245.117 517.092C244.171 516.744 243.685 515.696 244.033 514.749ZM250.457 537.998L249.682 547.03C249.541 548.669 250.516 550.2 252.061 550.767L269.464 557.158C270.996 557.72 272.716 557.197 273.675 555.877L285.435 539.686L251.174 527.106L250.457 537.998Z" fill="#634092" fill-opacity="0.2"/>
<path d="M252.925 564.687C251.883 567.526 248.737 568.982 245.899 567.94C243.06 566.897 241.604 563.751 242.646 560.913C243.688 558.075 246.834 556.618 249.673 557.661C252.511 558.703 253.967 561.849 252.925 564.687ZM249.499 563.429C249.846 562.483 249.361 561.434 248.415 561.087C247.469 560.74 246.42 561.225 246.073 562.171C245.725 563.117 246.211 564.166 247.157 564.513C248.103 564.861 249.151 564.376 249.499 563.429Z" fill="#634092" fill-opacity="0.2"/>
<path d="M270.057 570.978C269.015 573.816 265.869 575.272 263.03 574.23C260.192 573.188 258.736 570.042 259.778 567.204C260.82 564.365 263.966 562.909 266.805 563.951C269.643 564.994 271.099 568.14 270.057 570.978ZM266.63 569.72C266.978 568.774 266.492 567.725 265.546 567.378C264.6 567.03 263.552 567.516 263.204 568.462C262.857 569.408 263.342 570.457 264.288 570.804C265.234 571.151 266.283 570.666 266.63 569.72Z" fill="#634092" fill-opacity="0.2"/>
</g>
<defs>
<clipPath id="clip0_839_1281">
<rect width="68" height="68" fill="white" transform="translate(11 38)"/>
</clipPath>
<clipPath id="clip1_839_1281">
<rect width="73" height="73" fill="white" transform="translate(186 30.3302) rotate(-24.5497)"/>
</clipPath>
<clipPath id="clip2_839_1281">
<rect width="64.5879" height="64.5879" fill="white" transform="translate(0 521.173) rotate(-35.1372)"/>
</clipPath>
<clipPath id="clip3_839_1281">
<rect width="73" height="73" fill="white" transform="translate(238.162 499) rotate(20.1629)"/>
</clipPath>
</defs>
</svg>
