<svg width="185" height="139" viewBox="0 0 185 139" fill="none" xmlns="http://www.w3.org/2000/svg">
<mask id="mask0_706_2500" style="mask-type:alpha" maskUnits="userSpaceOnUse" x="0" y="7" width="164" height="101">
<rect y="7" width="164" height="100.923" rx="12.6154" fill="#2129EE"/>
</mask>
<g mask="url(#mask0_706_2500)">
<path opacity="0.0714286" fill-rule="evenodd" clip-rule="evenodd" d="M162.962 0.426781C181.572 1.12455 183.189 35.7587 194.397 54.0573C200.819 64.5425 208.672 71.9573 213.818 83.4597C224.544 107.437 251.592 132.415 239.85 155.661C228.524 178.083 199.303 151.905 177.952 154.463C157.619 156.899 138.688 181.085 120.361 169.976C100.792 158.113 88.0318 128.241 90.7507 101.601C93.2612 77.0041 119.136 70.359 132.43 51.7338C144.247 35.177 145.065 -0.244263 162.962 0.426781Z" stroke="#2129EE" stroke-opacity="0.07" stroke-width="0.630769"/>
<path opacity="0.142857" fill-rule="evenodd" clip-rule="evenodd" d="M163.424 2.42009C182.002 3.91679 182.637 38.5993 193.318 57.3681C199.439 68.1228 207.078 75.8705 211.894 87.5869C221.934 112.011 248.257 138.135 235.863 160.862C223.908 182.784 195.447 155.367 174.037 157.006C153.647 158.567 134.041 181.926 116.041 170.036C96.8199 157.339 84.9148 126.938 88.3875 100.431C91.5939 75.9569 117.642 70.4272 131.455 52.3844C143.734 36.3453 145.556 0.980711 163.424 2.42009Z" stroke="#2129EE" stroke-opacity="0.07" stroke-width="0.630769"/>
<path opacity="0.214286" fill-rule="evenodd" clip-rule="evenodd" d="M163.785 4.42312C182.31 6.71693 181.96 41.4056 192.103 60.6217C197.916 71.6328 205.33 79.7038 209.811 91.62C219.152 116.46 244.718 143.699 231.687 165.88C219.118 187.275 191.452 158.652 170.008 159.371C149.587 160.055 129.331 182.557 111.678 169.901C92.829 156.387 81.7932 125.493 86.0153 99.1517C89.9138 74.8298 116.102 70.4223 130.419 52.9839C143.146 37.4819 145.969 2.21716 163.785 4.42312Z" stroke="#2129EE" stroke-opacity="0.07" stroke-width="0.630769"/>
<path opacity="0.285714" fill-rule="evenodd" clip-rule="evenodd" d="M164.045 6.43202C182.494 9.52014 181.161 44.1726 190.753 63.8128C196.249 75.0668 203.43 83.4513 207.57 95.5527C216.202 120.779 240.98 149.099 227.328 170.707C214.16 191.549 187.322 161.756 165.871 161.553C145.443 161.36 124.561 182.978 107.278 169.571C88.8233 155.256 78.6702 123.906 83.6367 97.7624C88.2225 73.6228 114.52 70.3429 129.322 53.53C142.481 38.5842 146.303 3.46215 164.045 6.43202Z" stroke="#2129EE" stroke-opacity="0.07" stroke-width="0.630769"/>
<path opacity="0.357143" fill-rule="evenodd" clip-rule="evenodd" d="M164.204 8.44246C182.554 12.3211 180.239 46.8953 189.269 66.9354C194.443 78.4187 201.381 87.1066 205.176 99.3784C213.087 124.96 237.047 154.327 222.79 175.336C209.039 195.599 183.063 164.671 161.63 163.547C141.22 162.477 119.738 183.185 102.846 169.044C84.8083 153.944 75.5504 122.178 81.2552 96.2634C86.5227 72.3355 112.897 70.1872 128.167 54.0203C141.742 39.6488 146.557 4.71232 164.204 8.44246Z" stroke="#2129EE" stroke-opacity="0.07" stroke-width="0.630769"/>
<path opacity="0.428571" fill-rule="evenodd" clip-rule="evenodd" d="M164.263 10.4501C182.491 15.1146 179.198 49.5682 187.653 69.984C192.498 81.6825 199.186 90.6631 202.631 103.09C209.812 128.996 232.924 159.375 218.081 179.758C203.763 199.419 178.679 167.394 157.292 165.35C136.925 163.403 114.868 183.176 98.3877 168.318C80.7892 152.453 72.4377 120.308 78.8739 94.6546C84.8167 70.9675 111.236 69.9534 126.955 54.4523C140.929 40.6725 146.732 5.96422 164.263 10.4501Z" stroke="#2129EE" stroke-opacity="0.07" stroke-width="0.630769"/>
<path opacity="0.5" fill-rule="evenodd" clip-rule="evenodd" d="M164.22 12.4511C182.305 17.8957 178.037 52.1869 185.908 72.9535C190.419 84.8529 196.848 94.1153 199.938 106.683C206.38 132.882 228.617 164.234 213.204 183.968C198.338 203.001 174.178 169.919 152.862 166.957C132.562 164.137 109.958 182.95 93.9086 167.394C76.7708 150.782 69.3359 118.298 76.4955 92.9366C83.1063 69.5192 109.538 69.6405 125.688 54.824C140.043 41.6529 146.827 7.21494 164.22 12.4511Z" stroke="#2129EE" stroke-opacity="0.07" stroke-width="0.630769"/>
<path opacity="0.571429" fill-rule="evenodd" clip-rule="evenodd" d="M164.077 14.4401C181.997 20.6583 176.758 54.7452 184.036 75.8372C188.206 87.9232 194.369 97.4561 197.101 110.149C202.796 136.608 224.13 168.897 208.168 187.956C192.771 206.34 169.563 172.239 148.344 168.364C128.136 164.674 105.013 182.504 89.4146 166.268C72.7583 148.931 66.249 116.147 74.1234 91.1086C81.3943 67.9894 107.807 69.2459 124.366 55.1321C139.087 42.5856 146.843 8.46009 164.077 14.4401Z" stroke="#2129EE" stroke-opacity="0.07" stroke-width="0.630769"/>
<path opacity="0.642857" fill-rule="evenodd" clip-rule="evenodd" d="M163.833 16.4134C181.566 23.3975 175.364 57.2386 182.04 78.6304C185.865 90.8881 191.753 100.68 194.124 113.482C199.065 140.17 219.471 173.356 202.977 191.718C187.069 209.429 164.842 174.352 143.746 169.568C123.655 165.012 100.04 181.838 84.9116 164.942C68.757 146.9 63.1813 113.856 71.7609 89.1713C79.6829 66.3786 106.044 68.7688 122.993 55.3749C138.061 43.4684 146.78 9.69675 163.833 16.4134Z" stroke="#2129EE" stroke-opacity="0.07" stroke-width="0.630769"/>
<path opacity="0.714286" fill-rule="evenodd" clip-rule="evenodd" d="M163.49 18.3666C181.014 26.1081 173.857 59.6622 179.921 81.3277C183.396 93.7422 189.004 103.781 191.01 116.678C195.191 143.561 214.643 177.603 197.64 195.245C181.238 212.262 160.02 176.252 139.072 170.565C119.123 165.148 95.0452 180.951 80.405 163.415C64.7719 144.689 60.1366 111.427 69.4109 87.1254C77.9744 64.6868 104.251 68.2079 121.57 55.5501C136.966 44.298 146.638 10.9215 163.49 18.3666Z" stroke="#2129EE" stroke-opacity="0.07" stroke-width="0.630769"/>
<path opacity="0.785714" fill-rule="evenodd" clip-rule="evenodd" d="M163.048 20.2959C180.342 28.7854 172.237 62.0117 177.684 83.9244C180.805 96.4807 186.124 106.754 187.763 119.729C191.179 146.776 209.655 181.633 192.161 198.534C175.287 214.836 155.103 177.937 134.329 171.353C114.546 165.083 90.0344 179.841 75.9004 161.687C60.8077 142.302 57.1185 108.86 67.0762 84.9718C76.2707 62.9147 102.432 67.5623 120.099 55.6562C135.805 45.0723 146.417 12.1315 163.048 20.2959Z" stroke="#2129EE" stroke-opacity="0.07" stroke-width="0.630769"/>
<path opacity="0.857143" fill-rule="evenodd" clip-rule="evenodd" d="M162.508 22.1962C179.55 31.4233 170.508 64.2812 175.33 86.4146C178.093 99.0973 183.118 109.593 184.388 122.63C187.036 149.808 204.511 185.437 186.549 201.576C169.223 217.143 150.097 179.399 129.523 171.927C109.929 164.811 85.0147 178.508 71.404 159.758C56.8702 139.736 54.1315 106.156 64.7605 82.7104C74.5749 61.0616 100.588 66.8301 118.583 55.6902C134.579 45.7873 146.118 13.3224 162.508 22.1962Z" stroke="#2129EE" stroke-opacity="0.07" stroke-width="0.630769"/>
<path opacity="0.928571" fill-rule="evenodd" clip-rule="evenodd" d="M161.87 24.0642C178.641 34.0177 168.672 66.4672 172.864 88.7942C175.265 101.588 179.99 112.293 180.889 125.377C182.764 152.651 199.219 189.009 180.81 204.367C163.053 219.181 145.01 180.639 124.659 172.287C105.28 164.334 79.9918 176.952 66.9211 157.629C52.9639 136.995 51.179 103.318 62.4664 80.343C72.8886 59.1289 98.7227 66.0113 117.022 55.651C133.289 46.4412 145.742 14.4918 161.87 24.0642Z" stroke="#2129EE" stroke-opacity="0.07" stroke-width="0.630769"/>
<path fill-rule="evenodd" clip-rule="evenodd" d="M161.136 25.8947C177.614 36.5626 166.732 68.5641 170.288 91.0575C172.325 103.947 176.743 114.848 177.271 127.963C178.371 155.301 193.785 192.344 174.952 206.901C156.786 220.944 139.846 181.65 119.745 172.429C100.603 163.648 74.9723 175.173 62.4575 155.3C49.0939 134.079 48.2651 100.346 60.1971 77.8695C71.2145 57.1161 96.8376 65.1039 115.419 55.5359C131.938 47.0305 145.289 15.6354 161.136 25.8947Z" stroke="#2129EE" stroke-opacity="0.07" stroke-width="0.630769"/>
</g>
</svg>
