<svg width="185" height="139" viewBox="0 0 185 139" fill="none" xmlns="http://www.w3.org/2000/svg">
<g opacity="0.07">
<mask id="mask0_706_2554" style="mask-type:alpha" maskUnits="userSpaceOnUse" x="0" y="7" width="165" height="101">
<rect y="7" width="164.125" height="101" rx="12.625" fill="#0590DE"/>
</mask>
<g mask="url(#mask0_706_2554)">
<path opacity="0.0714286" fill-rule="evenodd" clip-rule="evenodd" d="M163.086 0.421605C181.71 1.1199 183.329 35.7805 194.545 54.0929C200.972 64.5862 208.831 72.0067 213.981 83.5178C224.715 107.514 251.783 132.51 240.032 155.774C228.698 178.213 199.454 152.015 178.088 154.575C157.739 157.013 138.793 181.218 120.453 170.1C100.868 158.228 88.0987 128.333 90.8197 101.673C93.3321 77.0573 119.227 70.4071 132.53 51.7678C144.356 35.1983 145.175 -0.249951 163.086 0.421605Z" stroke="#ED9F58" stroke-width="0.63125"/>
<path opacity="0.142857" fill-rule="evenodd" clip-rule="evenodd" d="M163.548 2.41567C182.141 3.9135 182.776 38.6225 193.466 57.4056C199.591 68.1685 207.235 75.922 212.055 87.6473C222.103 112.09 248.446 138.234 236.043 160.978C224.079 182.917 195.596 155.479 174.169 157.12C153.764 158.682 134.144 182.058 116.13 170.159C96.8937 157.453 84.9795 127.028 88.4548 100.502C91.6637 76.0085 117.731 70.4746 131.555 52.4181C143.844 36.3667 145.667 0.975186 163.548 2.41567Z" stroke="#ED9F58" stroke-width="0.63125"/>
<path opacity="0.214286" fill-rule="evenodd" clip-rule="evenodd" d="M163.909 4.42092C182.449 6.71647 182.099 41.4315 192.25 60.6624C198.066 71.6818 205.486 79.759 209.97 91.6842C219.319 116.543 244.905 143.803 231.864 166.001C219.285 187.412 191.597 158.768 170.138 159.487C149.701 160.172 129.429 182.691 111.763 170.025C92.8994 156.501 81.8552 125.583 86.0806 99.2217C89.9821 74.8813 116.191 70.4704 130.518 53.0187C143.254 37.5049 146.08 2.21327 163.909 4.42092Z" stroke="#ED9F58" stroke-width="0.63125"/>
<path opacity="0.285714" fill-rule="evenodd" clip-rule="evenodd" d="M164.17 6.43106C182.633 9.52153 181.299 44.2004 190.898 63.8555C196.399 75.1181 203.585 83.5091 207.729 95.6197C216.367 120.865 241.164 149.207 227.501 170.831C214.323 191.689 187.465 161.873 165.997 161.67C145.554 161.477 124.656 183.111 107.36 169.695C88.891 155.368 78.7302 123.994 83.7005 97.8311C88.2898 73.6731 114.607 70.3906 129.421 53.5649C142.59 38.6077 146.414 3.45893 164.17 6.43106Z" stroke="#ED9F58" stroke-width="0.63125"/>
<path opacity="0.357143" fill-rule="evenodd" clip-rule="evenodd" d="M164.329 8.44324C182.693 12.3249 180.377 46.9253 189.413 66.9808C194.591 78.4728 201.535 87.1673 205.332 99.4485C213.249 125.05 237.227 154.439 222.96 175.464C209.198 195.743 183.202 164.791 161.754 163.666C141.328 162.595 119.829 183.319 102.924 169.167C84.873 154.056 75.608 122.265 81.3171 96.3311C86.5887 72.385 112.983 70.235 128.265 54.0558C141.85 39.6733 146.669 4.71025 164.329 8.44324Z" stroke="#ED9F58" stroke-width="0.63125"/>
<path opacity="0.428571" fill-rule="evenodd" clip-rule="evenodd" d="M164.388 10.4531C182.63 15.1212 179.334 49.601 187.796 70.0324C192.645 81.7398 199.338 90.7273 202.785 103.164C209.971 129.09 233.102 159.491 218.247 179.89C203.918 199.566 178.816 167.516 157.412 165.471C137.029 163.523 114.956 183.31 98.4625 168.442C80.8507 152.564 72.4928 120.395 78.9339 94.7218C84.8812 71.0167 111.321 70.0017 127.052 54.4888C141.036 40.6986 146.844 5.9638 164.388 10.4531Z" stroke="#ED9F58" stroke-width="0.63125"/>
<path opacity="0.5" fill-rule="evenodd" clip-rule="evenodd" d="M164.345 12.4553C182.444 17.9041 178.172 52.2214 186.05 73.0038C190.564 84.9124 196.998 94.1818 200.09 106.759C206.537 132.978 228.791 164.354 213.367 184.103C198.489 203.151 174.31 170.043 152.978 167.079C132.663 164.257 110.042 183.084 93.9802 167.516C76.8293 150.892 69.3887 118.383 76.5538 93.0022C83.1697 69.5669 109.622 69.6883 125.783 54.8605C140.15 41.6794 146.939 7.21519 164.345 12.4553Z" stroke="#ED9F58" stroke-width="0.63125"/>
<path opacity="0.571429" fill-rule="evenodd" clip-rule="evenodd" d="M164.202 14.4461C182.135 20.669 176.893 54.7819 184.176 75.89C188.35 87.9851 194.517 97.5253 197.251 110.228C202.95 136.707 224.301 169.021 208.326 188.094C192.918 206.492 169.692 172.366 148.457 168.487C128.234 164.794 105.093 182.638 89.4828 166.39C72.8137 149.039 66.2995 116.23 74.1799 91.1729C81.4563 68.0362 107.889 69.2936 124.461 55.1691C139.193 42.613 146.955 8.4615 164.202 14.4461Z" stroke="#ED9F58" stroke-width="0.63125"/>
<path opacity="0.642857" fill-rule="evenodd" clip-rule="evenodd" d="M163.958 16.4206C181.705 23.41 175.498 57.2769 182.178 78.685C186.006 90.9521 191.899 100.751 194.272 113.564C199.217 140.272 219.638 173.483 203.132 191.858C187.211 209.583 164.968 174.48 143.855 169.692C123.749 165.132 100.116 181.972 84.9764 165.062C68.8095 147.006 63.2296 113.938 71.8157 89.234C79.7437 66.4238 106.125 68.8159 123.087 55.4118C138.166 43.4962 146.892 9.69881 163.958 16.4206Z" stroke="#ED9F58" stroke-width="0.63125"/>
<path opacity="0.714286" fill-rule="evenodd" clip-rule="evenodd" d="M163.615 18.3755C181.152 26.1229 173.989 59.7026 180.058 81.3846C183.536 93.8086 189.148 103.855 191.155 116.761C195.34 143.666 214.807 177.733 197.79 195.389C181.376 212.419 160.142 176.382 139.178 170.69C119.214 165.269 95.1178 181.083 80.4664 163.534C64.8213 144.795 60.1825 111.507 69.4639 87.1867C78.0339 64.731 104.331 68.2547 121.663 55.5874C137.071 44.3267 146.749 10.9247 163.615 18.3755Z" stroke="#ED9F58" stroke-width="0.63125"/>
<path opacity="0.785714" fill-rule="evenodd" clip-rule="evenodd" d="M163.173 20.306C180.48 28.802 172.369 62.0535 177.819 83.983C180.943 96.5488 186.266 106.83 187.906 119.815C191.325 146.882 209.815 181.766 192.308 198.68C175.421 214.994 155.221 178.067 134.432 171.478C114.633 165.203 90.1033 179.973 75.9585 161.805C60.8543 142.405 57.1622 108.938 67.1276 85.0312C76.3291 62.9573 102.51 67.6084 120.191 55.6933C135.908 45.1012 146.528 12.1354 163.173 20.306Z" stroke="#ED9F58" stroke-width="0.63125"/>
<path opacity="0.857143" fill-rule="evenodd" clip-rule="evenodd" d="M162.632 22.2074C179.687 31.4416 170.638 64.3245 175.464 86.4748C178.229 99.1671 183.258 109.671 184.529 122.718C187.178 149.916 204.667 185.572 186.691 201.724C169.352 217.303 150.212 179.531 129.622 172.053C110.013 164.931 85.0795 178.638 71.4585 159.874C56.9137 139.837 54.1728 106.231 64.81 82.7678C74.6318 61.1025 100.665 66.8754 118.673 55.7269C134.681 45.8165 146.23 13.3268 162.632 22.2074Z" stroke="#ED9F58" stroke-width="0.63125"/>
<path opacity="0.928571" fill-rule="evenodd" clip-rule="evenodd" d="M161.994 24.077C178.777 34.0382 168.801 66.5124 172.996 88.8564C175.399 101.66 180.127 112.373 181.027 125.467C182.904 152.762 199.371 189.148 180.948 204.518C163.178 219.343 145.12 180.771 124.755 172.413C105.36 164.454 80.0528 177.081 66.9722 157.743C53.0043 137.094 51.2181 103.391 62.5141 80.3987C72.9443 59.1685 98.798 66.0561 117.111 55.6879C133.39 46.4711 145.853 14.4973 161.994 24.077Z" stroke="#ED9F58" stroke-width="0.63125"/>
<path fill-rule="evenodd" clip-rule="evenodd" d="M161.259 25.9092C177.749 36.5851 166.859 68.6111 170.417 91.1217C172.456 104.02 176.877 114.93 177.406 128.055C178.507 155.414 193.933 192.485 175.085 207.054C156.905 221.107 139.952 181.783 119.836 172.555C100.679 163.768 75.0293 175.301 62.505 155.413C49.1312 134.176 48.3017 100.417 60.2428 77.9236C71.2686 57.1543 96.9113 65.1482 115.507 55.573C132.038 47.061 145.4 15.642 161.259 25.9092Z" stroke="#ED9F58" stroke-width="0.63125"/>
</g>
</g>
</svg>
