<svg width="123" height="29" viewBox="0 0 123 29" fill="none" xmlns="http://www.w3.org/2000/svg">
<path fill-rule="evenodd" clip-rule="evenodd" d="M84.9415 28.1425H82.197L93.1493 0.340332H95.8939L84.9415 28.1425ZM89.3964 0.340332H92.1409L81.1886 28.1425H78.444L89.3964 0.340332ZM39.9066 28.1425H37.162L48.1144 0.340332H50.8589L39.9066 28.1425ZM44.3615 0.340332H47.106L36.1536 28.1425H33.4091L44.3615 0.340332ZM62.424 28.1425H59.6795L70.6319 0.340332H73.3764L62.424 28.1425ZM66.8789 0.340332H69.6235L58.6711 28.1425H55.9265L66.8789 0.340332ZM104.714 28.1425H107.459L118.336 0.531068C117.897 0.406822 117.435 0.340332 116.956 0.340332H115.667L104.714 28.1425ZM114.658 0.340332H111.914L100.962 28.1425H103.706L114.658 0.340332ZM17.3891 28.1425H14.6445L25.5969 0.340332H28.3415L17.3891 28.1425ZM21.844 0.340332H24.5885L13.6361 28.1425H10.8916L21.844 0.340332ZM85.6436 0.340332H88.388L77.4356 28.1425H74.6912L85.6436 0.340332ZM40.6086 0.340332H43.3531L32.4007 28.1425H29.6562L40.6086 0.340332ZM63.126 0.340332H65.8705L54.9181 28.1425H52.1736L63.126 0.340332ZM110.906 0.340332H108.161L97.2087 28.1425H99.9532L110.906 0.340332ZM18.0911 0.340332H20.8356L9.88318 28.1425H7.13871L18.0911 0.340332ZM81.8906 0.340332H84.6352L73.6828 28.1425H70.9383L81.8906 0.340332ZM120.185 26.9767C121.301 26.0494 122.011 24.6514 122.011 23.0876V22.3425L120.185 26.9767ZM122.011 19.7827V12.816L115.973 28.1425H116.956C117.631 28.1425 118.276 28.0101 118.865 27.7698L122.011 19.7827ZM36.8556 0.340332H39.6002L28.6478 28.1425H25.9032L36.8556 0.340332ZM59.3732 0.340332H62.1176L51.1652 28.1425H48.4208L59.3732 0.340332ZM107.153 0.340332H104.408L93.4557 28.1425H96.2003L107.153 0.340332ZM14.3381 0.340332H17.0827L6.13031 28.1425H5.74721C4.9708 28.1425 4.23527 27.9675 3.57793 27.6547L14.3381 0.340332ZM78.1377 0.340332H80.8822L69.9299 28.1425H67.1853L78.1377 0.340332ZM122.011 10.2562V5.39528C122.011 4.8665 121.93 4.35669 121.779 3.87763L112.22 28.1425H114.965L122.011 10.2562ZM33.1027 0.340332H35.8472L24.8948 28.1425H22.1504L33.1027 0.340332ZM55.6203 0.340332H58.3648L47.4124 28.1425H44.6679L55.6203 0.340332ZM103.4 0.340332H100.655L89.7029 28.1425H92.4473L103.4 0.340332ZM10.5853 0.340332H13.3297L2.76163 27.1671C1.94219 26.5663 1.31044 25.7247 0.970742 24.7464L10.5853 0.340332ZM74.3848 0.340332H77.1293L66.1769 28.1425H63.4324L74.3848 0.340332ZM121.234 2.70142C120.742 1.92091 120.041 1.28456 119.211 0.869999L108.467 28.1425H111.212L121.234 2.70142ZM29.3499 0.340332H32.0943L21.142 28.1425H18.3975L29.3499 0.340332ZM51.8673 0.340332H54.6119L43.6595 28.1425H40.915L51.8673 0.340332ZM99.6468 0.340332H96.9023L85.9499 28.1425H88.6945L99.6468 0.340332ZM6.83232 0.340332H9.57686L0.692261 22.8936V15.9266L6.83232 0.340332ZM5.74721 0.340332H5.82391L0.692261 13.3668V5.39528C0.692261 2.60351 2.95544 0.340332 5.74721 0.340332Z" fill="#D9D9D9" fill-opacity="0.4"/>
</svg>
