<svg width="67" height="65" viewBox="0 0 67 65" fill="none" xmlns="http://www.w3.org/2000/svg">
<rect x="0.807739" y="0.324219" width="65.5997" height="63.8187" rx="8.32652" fill="url(#paint0_linear_1083_1805)" fill-opacity="0.2"/>
<path d="M34.7528 9.32744C34.7528 8.6949 34.24 8.18213 33.6075 8.18213C32.9749 8.18213 32.4622 8.6949 32.4622 9.32744C32.4622 9.95997 32.9749 10.4727 33.6075 10.4727C34.24 10.4727 34.7528 9.95997 34.7528 9.32744Z" fill="#70A334"/>
<path d="M37.0434 9.32744C37.0434 8.6949 36.5307 8.18213 35.8981 8.18213C35.2656 8.18213 34.7528 8.6949 34.7528 9.32744C34.7528 9.95997 35.2656 10.4727 35.8981 10.4727C36.5307 10.4727 37.0434 9.95997 37.0434 9.32744Z" fill="#70A334"/>
<path d="M34.7528 11.618C34.7528 10.9854 34.24 10.4727 33.6075 10.4727C32.9749 10.4727 32.4622 10.9854 32.4622 11.618C32.4622 12.2505 32.9749 12.7633 33.6075 12.7633C34.24 12.7633 34.7528 12.2505 34.7528 11.618Z" fill="#70A334"/>
<path d="M30.1715 13.9085C30.1715 13.276 29.6587 12.7632 29.0262 12.7632C28.3936 12.7632 27.8809 13.276 27.8809 13.9085C27.8809 14.541 28.3936 15.0538 29.0262 15.0538C29.6587 15.0538 30.1715 14.541 30.1715 13.9085Z" fill="#70A334"/>
<path d="M34.7528 13.9085C34.7528 13.276 34.24 12.7632 33.6075 12.7632C32.9749 12.7632 32.4622 13.276 32.4622 13.9085C32.4622 14.541 32.9749 15.0538 33.6075 15.0538C34.24 15.0538 34.7528 14.541 34.7528 13.9085Z" fill="#70A334"/>
<path d="M30.1715 16.199C30.1715 15.5665 29.6587 15.0537 29.0262 15.0537C28.3936 15.0537 27.8809 15.5665 27.8809 16.199C27.8809 16.8316 28.3936 17.3443 29.0262 17.3443C29.6587 17.3443 30.1715 16.8316 30.1715 16.199Z" fill="#70A334"/>
<path d="M32.4622 16.199C32.4622 15.5665 31.9495 15.0537 31.3169 15.0537C30.6844 15.0537 30.1716 15.5665 30.1716 16.199C30.1716 16.8316 30.6844 17.3443 31.3169 17.3443C31.9495 17.3443 32.4622 16.8316 32.4622 16.199Z" fill="#70A334"/>
<path d="M37.0434 16.199C37.0434 15.5665 36.5307 15.0537 35.8981 15.0537C35.2656 15.0537 34.7528 15.5665 34.7528 16.199C34.7528 16.8316 35.2656 17.3443 35.8981 17.3443C36.5307 17.3443 37.0434 16.8316 37.0434 16.199Z" fill="#70A334"/>
<path d="M39.3342 16.199C39.3342 15.5665 38.8214 15.0537 38.1889 15.0537C37.5563 15.0537 37.0436 15.5665 37.0436 16.199C37.0436 16.8316 37.5563 17.3443 38.1889 17.3443C38.8214 17.3443 39.3342 16.8316 39.3342 16.199Z" fill="#70A334"/>
<path d="M30.1715 18.4895C30.1715 17.857 29.6587 17.3442 29.0262 17.3442C28.3936 17.3442 27.8809 17.857 27.8809 18.4895C27.8809 19.1221 28.3936 19.6349 29.0262 19.6349C29.6587 19.6349 30.1715 19.1221 30.1715 18.4895Z" fill="#70A334"/>
<path d="M32.4622 18.4895C32.4622 17.857 31.9495 17.3442 31.3169 17.3442C30.6844 17.3442 30.1716 17.857 30.1716 18.4895C30.1716 19.1221 30.6844 19.6349 31.3169 19.6349C31.9495 19.6349 32.4622 19.1221 32.4622 18.4895Z" fill="#70A334"/>
<path d="M34.7528 18.4895C34.7528 17.857 34.24 17.3442 33.6075 17.3442C32.9749 17.3442 32.4622 17.857 32.4622 18.4895C32.4622 19.1221 32.9749 19.6349 33.6075 19.6349C34.24 19.6349 34.7528 19.1221 34.7528 18.4895Z" fill="#70A334"/>
<path d="M37.0434 18.4895C37.0434 17.857 36.5307 17.3442 35.8981 17.3442C35.2656 17.3442 34.7528 17.857 34.7528 18.4895C34.7528 19.1221 35.2656 19.6349 35.8981 19.6349C36.5307 19.6349 37.0434 19.1221 37.0434 18.4895Z" fill="#70A334"/>
<path d="M39.3342 18.4895C39.3342 17.857 38.8214 17.3442 38.1889 17.3442C37.5563 17.3442 37.0436 17.857 37.0436 18.4895C37.0436 19.1221 37.5563 19.6349 38.1889 19.6349C38.8214 19.6349 39.3342 19.1221 39.3342 18.4895Z" fill="#70A334"/>
<path d="M30.1715 20.7806C30.1715 20.148 29.6587 19.6353 29.0262 19.6353C28.3936 19.6353 27.8809 20.148 27.8809 20.7806C27.8809 21.4131 28.3936 21.9259 29.0262 21.9259C29.6587 21.9259 30.1715 21.4131 30.1715 20.7806Z" fill="#70A334"/>
<path d="M39.3342 20.7806C39.3342 20.148 38.8214 19.6353 38.1889 19.6353C37.5563 19.6353 37.0436 20.148 37.0436 20.7806C37.0436 21.4131 37.5563 21.9259 38.1889 21.9259C38.8214 21.9259 39.3342 21.4131 39.3342 20.7806Z" fill="#70A334"/>
<path d="M30.1715 23.0711C30.1715 22.4386 29.6587 21.9258 29.0262 21.9258C28.3936 21.9258 27.8809 22.4386 27.8809 23.0711C27.8809 23.7036 28.3936 24.2164 29.0262 24.2164C29.6587 24.2164 30.1715 23.7036 30.1715 23.0711Z" fill="#70A334"/>
<path d="M34.7528 23.0711C34.7528 22.4386 34.24 21.9258 33.6075 21.9258C32.9749 21.9258 32.4622 22.4386 32.4622 23.0711C32.4622 23.7036 32.9749 24.2164 33.6075 24.2164C34.24 24.2164 34.7528 23.7036 34.7528 23.0711Z" fill="#70A334"/>
<path d="M39.3342 23.0711C39.3342 22.4386 38.8214 21.9258 38.1889 21.9258C37.5563 21.9258 37.0436 22.4386 37.0436 23.0711C37.0436 23.7036 37.5563 24.2164 38.1889 24.2164C38.8214 24.2164 39.3342 23.7036 39.3342 23.0711Z" fill="#70A334"/>
<path d="M30.1715 25.3616C30.1715 24.7291 29.6587 24.2163 29.0262 24.2163C28.3936 24.2163 27.8809 24.7291 27.8809 25.3616C27.8809 25.9942 28.3936 26.5069 29.0262 26.5069C29.6587 26.5069 30.1715 25.9942 30.1715 25.3616Z" fill="#70A334"/>
<path d="M32.4622 25.3616C32.4622 24.7291 31.9495 24.2163 31.3169 24.2163C30.6844 24.2163 30.1716 24.7291 30.1716 25.3616C30.1716 25.9942 30.6844 26.5069 31.3169 26.5069C31.9495 26.5069 32.4622 25.9942 32.4622 25.3616Z" fill="#70A334"/>
<path d="M37.0434 25.3616C37.0434 24.7291 36.5307 24.2163 35.8981 24.2163C35.2656 24.2163 34.7528 24.7291 34.7528 25.3616C34.7528 25.9942 35.2656 26.5069 35.8981 26.5069C36.5307 26.5069 37.0434 25.9942 37.0434 25.3616Z" fill="#70A334"/>
<path d="M39.3342 25.3616C39.3342 24.7291 38.8214 24.2163 38.1889 24.2163C37.5563 24.2163 37.0436 24.7291 37.0436 25.3616C37.0436 25.9942 37.5563 26.5069 38.1889 26.5069C38.8214 26.5069 39.3342 25.9942 39.3342 25.3616Z" fill="#70A334"/>
<path d="M11.8466 27.6521C11.8466 27.0196 11.3339 26.5068 10.7013 26.5068C10.0688 26.5068 9.55603 27.0196 9.55603 27.6521C9.55603 28.2847 10.0688 28.7974 10.7013 28.7974C11.3339 28.7974 11.8466 28.2847 11.8466 27.6521Z" fill="#70A334"/>
<path d="M16.4281 27.6521C16.4281 27.0196 15.9153 26.5068 15.2828 26.5068C14.6502 26.5068 14.1375 27.0196 14.1375 27.6521C14.1375 28.2847 14.6502 28.7974 15.2828 28.7974C15.9153 28.7974 16.4281 28.2847 16.4281 27.6521Z" fill="#70A334"/>
<path d="M18.7187 27.6521C18.7187 27.0196 18.2059 26.5068 17.5734 26.5068C16.9409 26.5068 16.4281 27.0196 16.4281 27.6521C16.4281 28.2847 16.9409 28.7974 17.5734 28.7974C18.2059 28.7974 18.7187 28.2847 18.7187 27.6521Z" fill="#70A334"/>
<path d="M21.0092 27.6521C21.0092 27.0196 20.4965 26.5068 19.8639 26.5068C19.2314 26.5068 18.7186 27.0196 18.7186 27.6521C18.7186 28.2847 19.2314 28.7974 19.8639 28.7974C20.4965 28.7974 21.0092 28.2847 21.0092 27.6521Z" fill="#70A334"/>
<path d="M23.2998 27.6521C23.2998 27.0196 22.787 26.5068 22.1545 26.5068C21.5219 26.5068 21.0092 27.0196 21.0092 27.6521C21.0092 28.2847 21.5219 28.7974 22.1545 28.7974C22.787 28.7974 23.2998 28.2847 23.2998 27.6521Z" fill="#70A334"/>
<path d="M25.5903 27.6521C25.5903 27.0196 25.0775 26.5068 24.445 26.5068C23.8125 26.5068 23.2997 27.0196 23.2997 27.6521C23.2997 28.2847 23.8125 28.7974 24.445 28.7974C25.0775 28.7974 25.5903 28.2847 25.5903 27.6521Z" fill="#70A334"/>
<path d="M34.7528 27.6521C34.7528 27.0196 34.24 26.5068 33.6075 26.5068C32.9749 26.5068 32.4622 27.0196 32.4622 27.6521C32.4622 28.2847 32.9749 28.7974 33.6075 28.7974C34.24 28.7974 34.7528 28.2847 34.7528 27.6521Z" fill="#70A334"/>
<path d="M39.3342 27.6521C39.3342 27.0196 38.8214 26.5068 38.1889 26.5068C37.5563 26.5068 37.0436 27.0196 37.0436 27.6521C37.0436 28.2847 37.5563 28.7974 38.1889 28.7974C38.8214 28.7974 39.3342 28.2847 39.3342 27.6521Z" fill="#70A334"/>
<path d="M43.9154 27.6521C43.9154 27.0196 43.4026 26.5068 42.7701 26.5068C42.1375 26.5068 41.6248 27.0196 41.6248 27.6521C41.6248 28.2847 42.1375 28.7974 42.7701 28.7974C43.4026 28.7974 43.9154 28.2847 43.9154 27.6521Z" fill="#70A334"/>
<path d="M46.2059 27.6521C46.2059 27.0196 45.6931 26.5068 45.0606 26.5068C44.4281 26.5068 43.9153 27.0196 43.9153 27.6521C43.9153 28.2847 44.4281 28.7974 45.0606 28.7974C45.6931 28.7974 46.2059 28.2847 46.2059 27.6521Z" fill="#70A334"/>
<path d="M48.4965 27.6521C48.4965 27.0196 47.9838 26.5068 47.3512 26.5068C46.7187 26.5068 46.2059 27.0196 46.2059 27.6521C46.2059 28.2847 46.7187 28.7974 47.3512 28.7974C47.9838 28.7974 48.4965 28.2847 48.4965 27.6521Z" fill="#70A334"/>
<path d="M50.7872 27.6521C50.7872 27.0196 50.2744 26.5068 49.6419 26.5068C49.0094 26.5068 48.4966 27.0196 48.4966 27.6521C48.4966 28.2847 49.0094 28.7974 49.6419 28.7974C50.2744 28.7974 50.7872 28.2847 50.7872 27.6521Z" fill="#70A334"/>
<path d="M53.0776 27.6521C53.0776 27.0196 52.5648 26.5068 51.9323 26.5068C51.2998 26.5068 50.787 27.0196 50.787 27.6521C50.787 28.2847 51.2998 28.7974 51.9323 28.7974C52.5648 28.7974 53.0776 28.2847 53.0776 27.6521Z" fill="#70A334"/>
<path d="M11.8466 29.9432C11.8466 29.3106 11.3339 28.7979 10.7013 28.7979C10.0688 28.7979 9.55603 29.3106 9.55603 29.9432C9.55603 30.5757 10.0688 31.0885 10.7013 31.0885C11.3339 31.0885 11.8466 30.5757 11.8466 29.9432Z" fill="#70A334"/>
<path d="M14.1374 29.9432C14.1374 29.3106 13.6246 28.7979 12.9921 28.7979C12.3596 28.7979 11.8468 29.3106 11.8468 29.9432C11.8468 30.5757 12.3596 31.0885 12.9921 31.0885C13.6246 31.0885 14.1374 30.5757 14.1374 29.9432Z" fill="#70A334"/>
<path d="M16.4281 29.9432C16.4281 29.3106 15.9153 28.7979 15.2828 28.7979C14.6502 28.7979 14.1375 29.3106 14.1375 29.9432C14.1375 30.5757 14.6502 31.0885 15.2828 31.0885C15.9153 31.0885 16.4281 30.5757 16.4281 29.9432Z" fill="#70A334"/>
<path d="M18.7187 29.9432C18.7187 29.3106 18.2059 28.7979 17.5734 28.7979C16.9409 28.7979 16.4281 29.3106 16.4281 29.9432C16.4281 30.5757 16.9409 31.0885 17.5734 31.0885C18.2059 31.0885 18.7187 30.5757 18.7187 29.9432Z" fill="#70A334"/>
<path d="M30.1715 29.9432C30.1715 29.3106 29.6587 28.7979 29.0262 28.7979C28.3936 28.7979 27.8809 29.3106 27.8809 29.9432C27.8809 30.5757 28.3936 31.0885 29.0262 31.0885C29.6587 31.0885 30.1715 30.5757 30.1715 29.9432Z" fill="#70A334"/>
<path d="M34.7528 29.9432C34.7528 29.3106 34.24 28.7979 33.6075 28.7979C32.9749 28.7979 32.4622 29.3106 32.4622 29.9432C32.4622 30.5757 32.9749 31.0885 33.6075 31.0885C34.24 31.0885 34.7528 30.5757 34.7528 29.9432Z" fill="#70A334"/>
<path d="M39.3342 29.9432C39.3342 29.3106 38.8214 28.7979 38.1889 28.7979C37.5563 28.7979 37.0436 29.3106 37.0436 29.9432C37.0436 30.5757 37.5563 31.0885 38.1889 31.0885C38.8214 31.0885 39.3342 30.5757 39.3342 29.9432Z" fill="#70A334"/>
<path d="M46.2059 29.9432C46.2059 29.3106 45.6931 28.7979 45.0606 28.7979C44.4281 28.7979 43.9153 29.3106 43.9153 29.9432C43.9153 30.5757 44.4281 31.0885 45.0606 31.0885C45.6931 31.0885 46.2059 30.5757 46.2059 29.9432Z" fill="#70A334"/>
<path d="M53.0776 29.9432C53.0776 29.3106 52.5648 28.7979 51.9323 28.7979C51.2998 28.7979 50.787 29.3106 50.787 29.9432C50.787 30.5757 51.2998 31.0885 51.9323 31.0885C52.5648 31.0885 53.0776 30.5757 53.0776 29.9432Z" fill="#70A334"/>
<path d="M57.6589 29.9432C57.6589 29.3106 57.1461 28.7979 56.5136 28.7979C55.8811 28.7979 55.3683 29.3106 55.3683 29.9432C55.3683 30.5757 55.8811 31.0885 56.5136 31.0885C57.1461 31.0885 57.6589 30.5757 57.6589 29.9432Z" fill="#70A334"/>
<path d="M14.1374 32.2337C14.1374 31.6012 13.6246 31.0884 12.9921 31.0884C12.3596 31.0884 11.8468 31.6012 11.8468 32.2337C11.8468 32.8662 12.3596 33.379 12.9921 33.379C13.6246 33.379 14.1374 32.8662 14.1374 32.2337Z" fill="#70A334"/>
<path d="M21.0092 32.2337C21.0092 31.6012 20.4965 31.0884 19.8639 31.0884C19.2314 31.0884 18.7186 31.6012 18.7186 32.2337C18.7186 32.8662 19.2314 33.379 19.8639 33.379C20.4965 33.379 21.0092 32.8662 21.0092 32.2337Z" fill="#70A334"/>
<path d="M23.2998 32.2337C23.2998 31.6012 22.787 31.0884 22.1545 31.0884C21.5219 31.0884 21.0092 31.6012 21.0092 32.2337C21.0092 32.8662 21.5219 33.379 22.1545 33.379C22.787 33.379 23.2998 32.8662 23.2998 32.2337Z" fill="#70A334"/>
<path d="M25.5903 32.2337C25.5903 31.6012 25.0775 31.0884 24.445 31.0884C23.8125 31.0884 23.2997 31.6012 23.2997 32.2337C23.2997 32.8662 23.8125 33.379 24.445 33.379C25.0775 33.379 25.5903 32.8662 25.5903 32.2337Z" fill="#70A334"/>
<path d="M27.8811 32.2337C27.8811 31.6012 27.3683 31.0884 26.7358 31.0884C26.1032 31.0884 25.5905 31.6012 25.5905 32.2337C25.5905 32.8662 26.1032 33.379 26.7358 33.379C27.3683 33.379 27.8811 32.8662 27.8811 32.2337Z" fill="#70A334"/>
<path d="M37.0434 32.2337C37.0434 31.6012 36.5307 31.0884 35.8981 31.0884C35.2656 31.0884 34.7528 31.6012 34.7528 32.2337C34.7528 32.8662 35.2656 33.379 35.8981 33.379C36.5307 33.379 37.0434 32.8662 37.0434 32.2337Z" fill="#70A334"/>
<path d="M41.6247 32.2337C41.6247 31.6012 41.1119 31.0884 40.4794 31.0884C39.8469 31.0884 39.3341 31.6012 39.3341 32.2337C39.3341 32.8662 39.8469 33.379 40.4794 33.379C41.1119 33.379 41.6247 32.8662 41.6247 32.2337Z" fill="#70A334"/>
<path d="M48.4965 32.2337C48.4965 31.6012 47.9838 31.0884 47.3512 31.0884C46.7187 31.0884 46.2059 31.6012 46.2059 32.2337C46.2059 32.8662 46.7187 33.379 47.3512 33.379C47.9838 33.379 48.4965 32.8662 48.4965 32.2337Z" fill="#70A334"/>
<path d="M50.7872 32.2337C50.7872 31.6012 50.2744 31.0884 49.6419 31.0884C49.0094 31.0884 48.4966 31.6012 48.4966 32.2337C48.4966 32.8662 49.0094 33.379 49.6419 33.379C50.2744 33.379 50.7872 32.8662 50.7872 32.2337Z" fill="#70A334"/>
<path d="M53.0776 32.2337C53.0776 31.6012 52.5648 31.0884 51.9323 31.0884C51.2998 31.0884 50.787 31.6012 50.787 32.2337C50.787 32.8662 51.2998 33.379 51.9323 33.379C52.5648 33.379 53.0776 32.8662 53.0776 32.2337Z" fill="#70A334"/>
<path d="M55.3684 32.2337C55.3684 31.6012 54.8556 31.0884 54.2231 31.0884C53.5905 31.0884 53.0778 31.6012 53.0778 32.2337C53.0778 32.8662 53.5905 33.379 54.2231 33.379C54.8556 33.379 55.3684 32.8662 55.3684 32.2337Z" fill="#70A334"/>
<path d="M16.4281 34.5242C16.4281 33.8917 15.9153 33.3789 15.2828 33.3789C14.6502 33.3789 14.1375 33.8917 14.1375 34.5242C14.1375 35.1567 14.6502 35.6695 15.2828 35.6695C15.9153 35.6695 16.4281 35.1567 16.4281 34.5242Z" fill="#70A334"/>
<path d="M21.0092 34.5242C21.0092 33.8917 20.4965 33.3789 19.8639 33.3789C19.2314 33.3789 18.7186 33.8917 18.7186 34.5242C18.7186 35.1567 19.2314 35.6695 19.8639 35.6695C20.4965 35.6695 21.0092 35.1567 21.0092 34.5242Z" fill="#70A334"/>
<path d="M32.4622 34.5242C32.4622 33.8917 31.9495 33.3789 31.3169 33.3789C30.6844 33.3789 30.1716 33.8917 30.1716 34.5242C30.1716 35.1567 30.6844 35.6695 31.3169 35.6695C31.9495 35.6695 32.4622 35.1567 32.4622 34.5242Z" fill="#70A334"/>
<path d="M34.7528 34.5242C34.7528 33.8917 34.24 33.3789 33.6075 33.3789C32.9749 33.3789 32.4622 33.8917 32.4622 34.5242C32.4622 35.1567 32.9749 35.6695 33.6075 35.6695C34.24 35.6695 34.7528 35.1567 34.7528 34.5242Z" fill="#70A334"/>
<path d="M46.2059 34.5242C46.2059 33.8917 45.6931 33.3789 45.0606 33.3789C44.4281 33.3789 43.9153 33.8917 43.9153 34.5242C43.9153 35.1567 44.4281 35.6695 45.0606 35.6695C45.6931 35.6695 46.2059 35.1567 46.2059 34.5242Z" fill="#70A334"/>
<path d="M48.4965 34.5242C48.4965 33.8917 47.9838 33.3789 47.3512 33.3789C46.7187 33.3789 46.2059 33.8917 46.2059 34.5242C46.2059 35.1567 46.7187 35.6695 47.3512 35.6695C47.9838 35.6695 48.4965 35.1567 48.4965 34.5242Z" fill="#70A334"/>
<path d="M50.7872 34.5242C50.7872 33.8917 50.2744 33.3789 49.6419 33.3789C49.0094 33.3789 48.4966 33.8917 48.4966 34.5242C48.4966 35.1567 49.0094 35.6695 49.6419 35.6695C50.2744 35.6695 50.7872 35.1567 50.7872 34.5242Z" fill="#70A334"/>
<path d="M53.0776 34.5242C53.0776 33.8917 52.5648 33.3789 51.9323 33.3789C51.2998 33.3789 50.787 33.8917 50.787 34.5242C50.787 35.1567 51.2998 35.6695 51.9323 35.6695C52.5648 35.6695 53.0776 35.1567 53.0776 34.5242Z" fill="#70A334"/>
<path d="M57.6589 34.5242C57.6589 33.8917 57.1461 33.3789 56.5136 33.3789C55.8811 33.3789 55.3683 33.8917 55.3683 34.5242C55.3683 35.1567 55.8811 35.6695 56.5136 35.6695C57.1461 35.6695 57.6589 35.1567 57.6589 34.5242Z" fill="#70A334"/>
<path d="M14.1374 36.8147C14.1374 36.1822 13.6246 35.6694 12.9921 35.6694C12.3596 35.6694 11.8468 36.1822 11.8468 36.8147C11.8468 37.4473 12.3596 37.96 12.9921 37.96C13.6246 37.96 14.1374 37.4473 14.1374 36.8147Z" fill="#70A334"/>
<path d="M18.7187 36.8147C18.7187 36.1822 18.2059 35.6694 17.5734 35.6694C16.9409 35.6694 16.4281 36.1822 16.4281 36.8147C16.4281 37.4473 16.9409 37.96 17.5734 37.96C18.2059 37.96 18.7187 37.4473 18.7187 36.8147Z" fill="#70A334"/>
<path d="M21.0092 36.8147C21.0092 36.1822 20.4965 35.6694 19.8639 35.6694C19.2314 35.6694 18.7186 36.1822 18.7186 36.8147C18.7186 37.4473 19.2314 37.96 19.8639 37.96C20.4965 37.96 21.0092 37.4473 21.0092 36.8147Z" fill="#70A334"/>
<path d="M23.2998 36.8147C23.2998 36.1822 22.787 35.6694 22.1545 35.6694C21.5219 35.6694 21.0092 36.1822 21.0092 36.8147C21.0092 37.4473 21.5219 37.96 22.1545 37.96C22.787 37.96 23.2998 37.4473 23.2998 36.8147Z" fill="#70A334"/>
<path d="M25.5903 36.8147C25.5903 36.1822 25.0775 35.6694 24.445 35.6694C23.8125 35.6694 23.2997 36.1822 23.2997 36.8147C23.2997 37.4473 23.8125 37.96 24.445 37.96C25.0775 37.96 25.5903 37.4473 25.5903 36.8147Z" fill="#70A334"/>
<path d="M32.4622 36.8147C32.4622 36.1822 31.9495 35.6694 31.3169 35.6694C30.6844 35.6694 30.1716 36.1822 30.1716 36.8147C30.1716 37.4473 30.6844 37.96 31.3169 37.96C31.9495 37.96 32.4622 37.4473 32.4622 36.8147Z" fill="#70A334"/>
<path d="M34.7528 36.8147C34.7528 36.1822 34.24 35.6694 33.6075 35.6694C32.9749 35.6694 32.4622 36.1822 32.4622 36.8147C32.4622 37.4473 32.9749 37.96 33.6075 37.96C34.24 37.96 34.7528 37.4473 34.7528 36.8147Z" fill="#70A334"/>
<path d="M37.0434 36.8147C37.0434 36.1822 36.5307 35.6694 35.8981 35.6694C35.2656 35.6694 34.7528 36.1822 34.7528 36.8147C34.7528 37.4473 35.2656 37.96 35.8981 37.96C36.5307 37.96 37.0434 37.4473 37.0434 36.8147Z" fill="#70A334"/>
<path d="M41.6247 36.8147C41.6247 36.1822 41.1119 35.6694 40.4794 35.6694C39.8469 35.6694 39.3341 36.1822 39.3341 36.8147C39.3341 37.4473 39.8469 37.96 40.4794 37.96C41.1119 37.96 41.6247 37.4473 41.6247 36.8147Z" fill="#70A334"/>
<path d="M48.4965 36.8147C48.4965 36.1822 47.9838 35.6694 47.3512 35.6694C46.7187 35.6694 46.2059 36.1822 46.2059 36.8147C46.2059 37.4473 46.7187 37.96 47.3512 37.96C47.9838 37.96 48.4965 37.4473 48.4965 36.8147Z" fill="#70A334"/>
<path d="M55.3684 36.8147C55.3684 36.1822 54.8556 35.6694 54.2231 35.6694C53.5905 35.6694 53.0778 36.1822 53.0778 36.8147C53.0778 37.4473 53.5905 37.96 54.2231 37.96C54.8556 37.96 55.3684 37.4473 55.3684 36.8147Z" fill="#70A334"/>
<path d="M30.1715 39.1053C30.1715 38.4727 29.6587 37.96 29.0262 37.96C28.3936 37.96 27.8809 38.4727 27.8809 39.1053C27.8809 39.7378 28.3936 40.2506 29.0262 40.2506C29.6587 40.2506 30.1715 39.7378 30.1715 39.1053Z" fill="#70A334"/>
<path d="M32.4622 39.1053C32.4622 38.4727 31.9495 37.96 31.3169 37.96C30.6844 37.96 30.1716 38.4727 30.1716 39.1053C30.1716 39.7378 30.6844 40.2506 31.3169 40.2506C31.9495 40.2506 32.4622 39.7378 32.4622 39.1053Z" fill="#70A334"/>
<path d="M37.0434 39.1053C37.0434 38.4727 36.5307 37.96 35.8981 37.96C35.2656 37.96 34.7528 38.4727 34.7528 39.1053C34.7528 39.7378 35.2656 40.2506 35.8981 40.2506C36.5307 40.2506 37.0434 39.7378 37.0434 39.1053Z" fill="#70A334"/>
<path d="M39.3342 39.1053C39.3342 38.4727 38.8214 37.96 38.1889 37.96C37.5563 37.96 37.0436 38.4727 37.0436 39.1053C37.0436 39.7378 37.5563 40.2506 38.1889 40.2506C38.8214 40.2506 39.3342 39.7378 39.3342 39.1053Z" fill="#70A334"/>
<path d="M41.6247 39.1053C41.6247 38.4727 41.1119 37.96 40.4794 37.96C39.8469 37.96 39.3341 38.4727 39.3341 39.1053C39.3341 39.7378 39.8469 40.2506 40.4794 40.2506C41.1119 40.2506 41.6247 39.7378 41.6247 39.1053Z" fill="#70A334"/>
<path d="M43.9154 39.1053C43.9154 38.4727 43.4026 37.96 42.7701 37.96C42.1375 37.96 41.6248 38.4727 41.6248 39.1053C41.6248 39.7378 42.1375 40.2506 42.7701 40.2506C43.4026 40.2506 43.9154 39.7378 43.9154 39.1053Z" fill="#70A334"/>
<path d="M46.2059 39.1053C46.2059 38.4727 45.6931 37.96 45.0606 37.96C44.4281 37.96 43.9153 38.4727 43.9153 39.1053C43.9153 39.7378 44.4281 40.2506 45.0606 40.2506C45.6931 40.2506 46.2059 39.7378 46.2059 39.1053Z" fill="#70A334"/>
<path d="M50.7872 39.1053C50.7872 38.4727 50.2744 37.96 49.6419 37.96C49.0094 37.96 48.4966 38.4727 48.4966 39.1053C48.4966 39.7378 49.0094 40.2506 49.6419 40.2506C50.2744 40.2506 50.7872 39.7378 50.7872 39.1053Z" fill="#70A334"/>
<path d="M55.3684 39.1053C55.3684 38.4727 54.8556 37.96 54.2231 37.96C53.5905 37.96 53.0778 38.4727 53.0778 39.1053C53.0778 39.7378 53.5905 40.2506 54.2231 40.2506C54.8556 40.2506 55.3684 39.7378 55.3684 39.1053Z" fill="#70A334"/>
<path d="M34.7528 41.3958C34.7528 40.7633 34.24 40.2505 33.6075 40.2505C32.9749 40.2505 32.4622 40.7633 32.4622 41.3958C32.4622 42.0283 32.9749 42.5411 33.6075 42.5411C34.24 42.5411 34.7528 42.0283 34.7528 41.3958Z" fill="#70A334"/>
<path d="M39.3342 41.3958C39.3342 40.7633 38.8214 40.2505 38.1889 40.2505C37.5563 40.2505 37.0436 40.7633 37.0436 41.3958C37.0436 42.0283 37.5563 42.5411 38.1889 42.5411C38.8214 42.5411 39.3342 42.0283 39.3342 41.3958Z" fill="#70A334"/>
<path d="M43.9154 41.3958C43.9154 40.7633 43.4026 40.2505 42.7701 40.2505C42.1375 40.2505 41.6248 40.7633 41.6248 41.3958C41.6248 42.0283 42.1375 42.5411 42.7701 42.5411C43.4026 42.5411 43.9154 42.0283 43.9154 41.3958Z" fill="#70A334"/>
<path d="M46.2059 41.3958C46.2059 40.7633 45.6931 40.2505 45.0606 40.2505C44.4281 40.2505 43.9153 40.7633 43.9153 41.3958C43.9153 42.0283 44.4281 42.5411 45.0606 42.5411C45.6931 42.5411 46.2059 42.0283 46.2059 41.3958Z" fill="#70A334"/>
<path d="M53.0776 41.3958C53.0776 40.7633 52.5648 40.2505 51.9323 40.2505C51.2998 40.2505 50.787 40.7633 50.787 41.3958C50.787 42.0283 51.2998 42.5411 51.9323 42.5411C52.5648 42.5411 53.0776 42.0283 53.0776 41.3958Z" fill="#70A334"/>
<path d="M55.3684 41.3958C55.3684 40.7633 54.8556 40.2505 54.2231 40.2505C53.5905 40.2505 53.0778 40.7633 53.0778 41.3958C53.0778 42.0283 53.5905 42.5411 54.2231 42.5411C54.8556 42.5411 55.3684 42.0283 55.3684 41.3958Z" fill="#70A334"/>
<path d="M30.1715 43.6868C30.1715 43.0543 29.6587 42.5415 29.0262 42.5415C28.3936 42.5415 27.8809 43.0543 27.8809 43.6868C27.8809 44.3193 28.3936 44.8321 29.0262 44.8321C29.6587 44.8321 30.1715 44.3193 30.1715 43.6868Z" fill="#70A334"/>
<path d="M34.7528 43.6868C34.7528 43.0543 34.24 42.5415 33.6075 42.5415C32.9749 42.5415 32.4622 43.0543 32.4622 43.6868C32.4622 44.3193 32.9749 44.8321 33.6075 44.8321C34.24 44.8321 34.7528 44.3193 34.7528 43.6868Z" fill="#70A334"/>
<path d="M37.0434 43.6868C37.0434 43.0543 36.5307 42.5415 35.8981 42.5415C35.2656 42.5415 34.7528 43.0543 34.7528 43.6868C34.7528 44.3193 35.2656 44.8321 35.8981 44.8321C36.5307 44.8321 37.0434 44.3193 37.0434 43.6868Z" fill="#70A334"/>
<path d="M39.3342 43.6868C39.3342 43.0543 38.8214 42.5415 38.1889 42.5415C37.5563 42.5415 37.0436 43.0543 37.0436 43.6868C37.0436 44.3193 37.5563 44.8321 38.1889 44.8321C38.8214 44.8321 39.3342 44.3193 39.3342 43.6868Z" fill="#70A334"/>
<path d="M41.6247 43.6868C41.6247 43.0543 41.1119 42.5415 40.4794 42.5415C39.8469 42.5415 39.3341 43.0543 39.3341 43.6868C39.3341 44.3193 39.8469 44.8321 40.4794 44.8321C41.1119 44.8321 41.6247 44.3193 41.6247 43.6868Z" fill="#70A334"/>
<path d="M43.9154 43.6868C43.9154 43.0543 43.4026 42.5415 42.7701 42.5415C42.1375 42.5415 41.6248 43.0543 41.6248 43.6868C41.6248 44.3193 42.1375 44.8321 42.7701 44.8321C43.4026 44.8321 43.9154 44.3193 43.9154 43.6868Z" fill="#70A334"/>
<path d="M50.7872 43.6868C50.7872 43.0543 50.2744 42.5415 49.6419 42.5415C49.0094 42.5415 48.4966 43.0543 48.4966 43.6868C48.4966 44.3193 49.0094 44.8321 49.6419 44.8321C50.2744 44.8321 50.7872 44.3193 50.7872 43.6868Z" fill="#70A334"/>
<path d="M53.0776 43.6868C53.0776 43.0543 52.5648 42.5415 51.9323 42.5415C51.2998 42.5415 50.787 43.0543 50.787 43.6868C50.787 44.3193 51.2998 44.8321 51.9323 44.8321C52.5648 44.8321 53.0776 44.3193 53.0776 43.6868Z" fill="#70A334"/>
<path d="M57.6589 43.6868C57.6589 43.0543 57.1461 42.5415 56.5136 42.5415C55.8811 42.5415 55.3683 43.0543 55.3683 43.6868C55.3683 44.3193 55.8811 44.8321 56.5136 44.8321C57.1461 44.8321 57.6589 44.3193 57.6589 43.6868Z" fill="#70A334"/>
<path d="M30.1715 45.9773C30.1715 45.3448 29.6587 44.832 29.0262 44.832C28.3936 44.832 27.8809 45.3448 27.8809 45.9773C27.8809 46.6099 28.3936 47.1226 29.0262 47.1226C29.6587 47.1226 30.1715 46.6099 30.1715 45.9773Z" fill="#70A334"/>
<path d="M39.3342 45.9773C39.3342 45.3448 38.8214 44.832 38.1889 44.832C37.5563 44.832 37.0436 45.3448 37.0436 45.9773C37.0436 46.6099 37.5563 47.1226 38.1889 47.1226C38.8214 47.1226 39.3342 46.6099 39.3342 45.9773Z" fill="#70A334"/>
<path d="M50.7872 45.9773C50.7872 45.3448 50.2744 44.832 49.6419 44.832C49.0094 44.832 48.4966 45.3448 48.4966 45.9773C48.4966 46.6099 49.0094 47.1226 49.6419 47.1226C50.2744 47.1226 50.7872 46.6099 50.7872 45.9773Z" fill="#70A334"/>
<path d="M55.3684 45.9773C55.3684 45.3448 54.8556 44.832 54.2231 44.832C53.5905 44.832 53.0778 45.3448 53.0778 45.9773C53.0778 46.6099 53.5905 47.1226 54.2231 47.1226C54.8556 47.1226 55.3684 46.6099 55.3684 45.9773Z" fill="#70A334"/>
<path d="M30.1715 48.2679C30.1715 47.6353 29.6587 47.1226 29.0262 47.1226C28.3936 47.1226 27.8809 47.6353 27.8809 48.2679C27.8809 48.9004 28.3936 49.4132 29.0262 49.4132C29.6587 49.4132 30.1715 48.9004 30.1715 48.2679Z" fill="#70A334"/>
<path d="M34.7528 48.2679C34.7528 47.6353 34.24 47.1226 33.6075 47.1226C32.9749 47.1226 32.4622 47.6353 32.4622 48.2679C32.4622 48.9004 32.9749 49.4132 33.6075 49.4132C34.24 49.4132 34.7528 48.9004 34.7528 48.2679Z" fill="#70A334"/>
<path d="M39.3342 48.2679C39.3342 47.6353 38.8214 47.1226 38.1889 47.1226C37.5563 47.1226 37.0436 47.6353 37.0436 48.2679C37.0436 48.9004 37.5563 49.4132 38.1889 49.4132C38.8214 49.4132 39.3342 48.9004 39.3342 48.2679Z" fill="#70A334"/>
<path d="M48.4965 48.2679C48.4965 47.6353 47.9838 47.1226 47.3512 47.1226C46.7187 47.1226 46.2059 47.6353 46.2059 48.2679C46.2059 48.9004 46.7187 49.4132 47.3512 49.4132C47.9838 49.4132 48.4965 48.9004 48.4965 48.2679Z" fill="#70A334"/>
<path d="M30.1715 50.5584C30.1715 49.9259 29.6587 49.4131 29.0262 49.4131C28.3936 49.4131 27.8809 49.9259 27.8809 50.5584C27.8809 51.1909 28.3936 51.7037 29.0262 51.7037C29.6587 51.7037 30.1715 51.1909 30.1715 50.5584Z" fill="#70A334"/>
<path d="M34.7528 50.5584C34.7528 49.9259 34.24 49.4131 33.6075 49.4131C32.9749 49.4131 32.4622 49.9259 32.4622 50.5584C32.4622 51.1909 32.9749 51.7037 33.6075 51.7037C34.24 51.7037 34.7528 51.1909 34.7528 50.5584Z" fill="#70A334"/>
<path d="M37.0434 50.5584C37.0434 49.9259 36.5307 49.4131 35.8981 49.4131C35.2656 49.4131 34.7528 49.9259 34.7528 50.5584C34.7528 51.1909 35.2656 51.7037 35.8981 51.7037C36.5307 51.7037 37.0434 51.1909 37.0434 50.5584Z" fill="#70A334"/>
<path d="M41.6247 50.5584C41.6247 49.9259 41.1119 49.4131 40.4794 49.4131C39.8469 49.4131 39.3341 49.9259 39.3341 50.5584C39.3341 51.1909 39.8469 51.7037 40.4794 51.7037C41.1119 51.7037 41.6247 51.1909 41.6247 50.5584Z" fill="#70A334"/>
<path d="M50.7872 50.5584C50.7872 49.9259 50.2744 49.4131 49.6419 49.4131C49.0094 49.4131 48.4966 49.9259 48.4966 50.5584C48.4966 51.1909 49.0094 51.7037 49.6419 51.7037C50.2744 51.7037 50.7872 51.1909 50.7872 50.5584Z" fill="#70A334"/>
<path d="M53.0776 50.5584C53.0776 49.9259 52.5648 49.4131 51.9323 49.4131C51.2998 49.4131 50.787 49.9259 50.787 50.5584C50.787 51.1909 51.2998 51.7037 51.9323 51.7037C52.5648 51.7037 53.0776 51.1909 53.0776 50.5584Z" fill="#70A334"/>
<path d="M34.7528 52.8489C34.7528 52.2164 34.24 51.7036 33.6075 51.7036C32.9749 51.7036 32.4622 52.2164 32.4622 52.8489C32.4622 53.4815 32.9749 53.9942 33.6075 53.9942C34.24 53.9942 34.7528 53.4815 34.7528 52.8489Z" fill="#70A334"/>
<path d="M48.4965 52.8489C48.4965 52.2164 47.9838 51.7036 47.3512 51.7036C46.7187 51.7036 46.2059 52.2164 46.2059 52.8489C46.2059 53.4815 46.7187 53.9942 47.3512 53.9942C47.9838 53.9942 48.4965 53.4815 48.4965 52.8489Z" fill="#70A334"/>
<path d="M50.7872 52.8489C50.7872 52.2164 50.2744 51.7036 49.6419 51.7036C49.0094 51.7036 48.4966 52.2164 48.4966 52.8489C48.4966 53.4815 49.0094 53.9942 49.6419 53.9942C50.2744 53.9942 50.7872 53.4815 50.7872 52.8489Z" fill="#70A334"/>
<path d="M53.0776 52.8489C53.0776 52.2164 52.5648 51.7036 51.9323 51.7036C51.2998 51.7036 50.787 52.2164 50.787 52.8489C50.787 53.4815 51.2998 53.9942 51.9323 53.9942C52.5648 53.9942 53.0776 53.4815 53.0776 52.8489Z" fill="#70A334"/>
<path d="M30.1715 55.1394C30.1715 54.5069 29.6587 53.9941 29.0262 53.9941C28.3936 53.9941 27.8809 54.5069 27.8809 55.1394C27.8809 55.772 28.3936 56.2848 29.0262 56.2848C29.6587 56.2848 30.1715 55.772 30.1715 55.1394Z" fill="#70A334"/>
<path d="M34.7528 55.1394C34.7528 54.5069 34.24 53.9941 33.6075 53.9941C32.9749 53.9941 32.4622 54.5069 32.4622 55.1394C32.4622 55.772 32.9749 56.2848 33.6075 56.2848C34.24 56.2848 34.7528 55.772 34.7528 55.1394Z" fill="#70A334"/>
<path d="M37.0434 55.1394C37.0434 54.5069 36.5307 53.9941 35.8981 53.9941C35.2656 53.9941 34.7528 54.5069 34.7528 55.1394C34.7528 55.772 35.2656 56.2848 35.8981 56.2848C36.5307 56.2848 37.0434 55.772 37.0434 55.1394Z" fill="#70A334"/>
<path d="M41.6247 55.1394C41.6247 54.5069 41.1119 53.9941 40.4794 53.9941C39.8469 53.9941 39.3341 54.5069 39.3341 55.1394C39.3341 55.772 39.8469 56.2848 40.4794 56.2848C41.1119 56.2848 41.6247 55.772 41.6247 55.1394Z" fill="#70A334"/>
<path d="M48.4965 55.1394C48.4965 54.5069 47.9838 53.9941 47.3512 53.9941C46.7187 53.9941 46.2059 54.5069 46.2059 55.1394C46.2059 55.772 46.7187 56.2848 47.3512 56.2848C47.9838 56.2848 48.4965 55.772 48.4965 55.1394Z" fill="#70A334"/>
<path d="M55.3684 55.1394C55.3684 54.5069 54.8556 53.9941 54.2231 53.9941C53.5905 53.9941 53.0778 54.5069 53.0778 55.1394C53.0778 55.772 53.5905 56.2848 54.2231 56.2848C54.8556 56.2848 55.3684 55.772 55.3684 55.1394Z" fill="#70A334"/>
<path d="M25.5903 16.1993C25.5903 11.7715 22.0009 8.18213 17.5732 8.18213C13.1454 8.18213 9.55603 11.7715 9.55603 16.1993C9.55603 20.627 13.1454 24.2164 17.5732 24.2164C22.0009 24.2164 25.5903 20.627 25.5903 16.1993Z" fill="#70A334"/>
<path d="M21.0092 11.6182H17.5733C15.0432 11.6182 12.9921 13.6693 12.9921 16.1994V19.6353C12.9921 22.1654 15.0432 24.2165 17.5733 24.2165H21.0092C23.5393 24.2165 25.5904 22.1654 25.5904 19.6353V16.1994C25.5904 13.6693 23.5393 11.6182 21.0092 11.6182Z" fill="#70A334"/>
<path d="M57.6315 16.1993C57.6315 11.7715 54.0421 8.18213 49.6143 8.18213C45.1866 8.18213 41.5972 11.7715 41.5972 16.1993C41.5972 20.627 45.1866 24.2164 49.6143 24.2164C54.0421 24.2164 57.6315 20.627 57.6315 16.1993Z" fill="#70A334"/>
<path d="M49.6143 11.6182H46.1784C43.6483 11.6182 41.5972 13.6693 41.5972 16.1994V19.6353C41.5972 22.1654 43.6483 24.2165 46.1784 24.2165H49.6143C52.1444 24.2165 54.1955 22.1654 54.1955 19.6353V16.1994C54.1955 13.6693 52.1444 11.6182 49.6143 11.6182Z" fill="#70A334"/>
<path d="M25.5903 48.2403C25.5903 43.8125 22.0009 40.2231 17.5732 40.2231C13.1454 40.2231 9.55603 43.8125 9.55603 48.2403C9.55603 52.6681 13.1454 56.2575 17.5732 56.2575C22.0009 56.2575 25.5903 52.6681 25.5903 48.2403Z" fill="#70A334"/>
<path d="M21.0092 40.2231H17.5733C15.0432 40.2231 12.9921 42.2742 12.9921 44.8044V48.2403C12.9921 50.7704 15.0432 52.8215 17.5733 52.8215H21.0092C23.5393 52.8215 25.5904 50.7704 25.5904 48.2403V44.8044C25.5904 42.2742 23.5393 40.2231 21.0092 40.2231Z" fill="#70A334"/>
<path d="M17.5734 10.4727H17.5733C14.4107 10.4727 11.8468 13.0365 11.8468 16.1992V16.1992C11.8468 19.3619 14.4107 21.9258 17.5733 21.9258H17.5734C20.7361 21.9258 23.2999 19.3619 23.2999 16.1992V16.1992C23.2999 13.0365 20.7361 10.4727 17.5734 10.4727Z" fill="white"/>
<path d="M19.864 12.7632H17.5734C15.6758 12.7632 14.1375 14.3015 14.1375 16.1991V18.4897C14.1375 20.3873 15.6758 21.9256 17.5734 21.9256H19.864C21.7616 21.9256 23.2999 20.3873 23.2999 18.4897V16.1991C23.2999 14.3015 21.7616 12.7632 19.864 12.7632Z" fill="white"/>
<path d="M49.6143 10.4727H49.6142C46.4516 10.4727 43.8877 13.0365 43.8877 16.1992V16.1992C43.8877 19.3619 46.4516 21.9258 49.6142 21.9258H49.6143C52.777 21.9258 55.3408 19.3619 55.3408 16.1992V16.1992C55.3408 13.0365 52.777 10.4727 49.6143 10.4727Z" fill="white"/>
<path d="M49.6142 12.7632H47.3236C45.426 12.7632 43.8877 14.3015 43.8877 16.1991V18.4897C43.8877 20.3873 45.426 21.9256 47.3236 21.9256H49.6142C51.5118 21.9256 53.0502 20.3873 53.0502 18.4897V16.1991C53.0502 14.3015 51.5118 12.7632 49.6142 12.7632Z" fill="white"/>
<path d="M17.5734 42.5137H17.5733C14.4107 42.5137 11.8468 45.0775 11.8468 48.2402V48.2403C11.8468 51.4029 14.4107 53.9668 17.5733 53.9668H17.5734C20.7361 53.9668 23.2999 51.4029 23.2999 48.2403V48.2402C23.2999 45.0775 20.7361 42.5137 17.5734 42.5137Z" fill="white"/>
<path d="M19.864 42.5137H17.5734C15.6758 42.5137 14.1375 44.052 14.1375 45.9496V48.2402C14.1375 50.1378 15.6758 51.6761 17.5734 51.6761H19.864C21.7616 51.6761 23.2999 50.1378 23.2999 48.2402V45.9496C23.2999 44.052 21.7616 42.5137 19.864 42.5137Z" fill="white"/>
<path d="M21.0093 16.1991C21.0093 14.3015 19.471 12.7632 17.5734 12.7632C15.6758 12.7632 14.1375 14.3015 14.1375 16.1991C14.1375 18.0967 15.6758 19.635 17.5734 19.635C19.471 19.635 21.0093 18.0967 21.0093 16.1991Z" fill="#70A334"/>
<path d="M18.7186 13.9087H17.5733C16.3083 13.9087 15.2827 14.9342 15.2827 16.1993V17.3446C15.2827 18.6097 16.3083 19.6352 17.5733 19.6352H18.7186C19.9837 19.6352 21.0093 18.6097 21.0093 17.3446V16.1993C21.0093 14.9342 19.9837 13.9087 18.7186 13.9087Z" fill="#70A334"/>
<path d="M53.0503 16.1991C53.0503 14.3015 51.512 12.7632 49.6144 12.7632C47.7168 12.7632 46.1785 14.3015 46.1785 16.1991C46.1785 18.0967 47.7168 19.635 49.6144 19.635C51.512 19.635 53.0503 18.0967 53.0503 16.1991Z" fill="#70A334"/>
<path d="M49.6144 13.9087H48.4691C47.204 13.9087 46.1785 14.9342 46.1785 16.1993V17.3446C46.1785 18.6097 47.204 19.6352 48.4691 19.6352H49.6144C50.8795 19.6352 51.905 18.6097 51.905 17.3446V16.1993C51.905 14.9342 50.8795 13.9087 49.6144 13.9087Z" fill="#70A334"/>
<path d="M21.0093 48.2401C21.0093 46.3425 19.471 44.8042 17.5734 44.8042C15.6758 44.8042 14.1375 46.3425 14.1375 48.2401C14.1375 50.1377 15.6758 51.676 17.5734 51.676C19.471 51.676 21.0093 50.1377 21.0093 48.2401Z" fill="#70A334"/>
<path d="M18.7186 44.8042H17.5733C16.3083 44.8042 15.2827 45.8297 15.2827 47.0948V48.2401C15.2827 49.5052 16.3083 50.5307 17.5733 50.5307H18.7186C19.9837 50.5307 21.0093 49.5052 21.0093 48.2401V47.0948C21.0093 45.8297 19.9837 44.8042 18.7186 44.8042Z" fill="#70A334"/>
<defs>
<linearGradient id="paint0_linear_1083_1805" x1="62.099" y1="0.324221" x2="0.807745" y2="64.1429" gradientUnits="userSpaceOnUse">
<stop stop-color="#70A334"/>
</linearGradient>
</defs>
</svg>
